/* XPM */
static char * connect_xpm[] = {
"21 16 8 1",
" 	c None",
".	c #000000",
"+	c #00FF04",
"@	c #BFBFBF",
"#	c #FEFEFE",
"$	c #00FEFE",
"%	c #FF0000",
"&	c #0000FE",
"      ..    ........ ",
"      .+.  .@@@@@@@@.",
"  .....++. .@......@.",
"  .+++++++..@.##$$.@.",
"  .+...++. .@.#%&#.@.",
"  .+. .+.  .@.$#%#.@.",
"  .+. ..   .@......@.",
" ........  .@@@@@@@@.",
".@@@@@@@@.  ........ ",
".@......@.   .. .+.  ",
".@.#&$$.@.  .+. .+.  ",
".@.#%&#.@. .++...+.  ",
".@.$###.@..+++++++.  ",
".@......@. .++.....  ",
".@@@@@@@@.  .+.      ",
" ........    ..      "};
