/* XPM */
static char * connectX_xpm[] = {
"21 16 5 1",
" 	c None",
".	c #000000",
"+	c #BFBFBF",
"@	c #FF0000",
"#	c #3F3F3F",
"            ........ ",
"      ..   .++++++++.",
"  ....@@.  .+......+.",
"  .@@@@@.  .+.####.+.",
"  .@..@@.  .+.####.+.",
"  .@. ..   .+.####.+.",
"  .@.      .+......+.",
" ........  .++++++++.",
".++++++++.  ........ ",
".+......+.      .@.  ",
".+.####.+.   .. .@.  ",
".+.####.+.  .@@..@.  ",
".+.####.+.  .@@@@@.  ",
".+......+.  .@@....  ",
".++++++++.   ..      ",
" ........            "};
