/* XPM */
static char * joystickA_xpm[] = {
"17 16 26 1",
" 	c None",
".	c #000000",
"+	c #008200",
"@	c #00FF08",
"#	c #003300",
"$	c #4C4C4C",
"%	c #323232",
"&	c #464646",
"*	c #252525",
"=	c #474747",
"-	c #00C400",
";	c #7C0000",
">	c #380000",
",	c #8A8A8A",
"'	c #026602",
")	c #009E00",
"!	c #800000",
"~	c #603B3B",
"{	c #81ABAB",
"]	c #004400",
"^	c #4E4E4E",
"/	c #005600",
"(	c #131313",
"_	c #181818",
":	c #AAAAAA",
"<	c #070707",
"        ..       ",
"       +@@.      ",
"       +@#.      ",
"       +@#.      ",
"       +@#.      ",
"       +@#.      ",
"     $%+@#.%%    ",
"   &%@@+@##@@%%* ",
" =%---@.@..@;>@@.",
",@-'')@@.@-@!~@'.",
"=@@@@+----@@@{]+.",
"^-]/@@@@'@)@#]/).",
"(@@@/]'@@@_]/+'..",
"..]--@@''.]+'..  ",
"  :..+-@@]+..    ",
"     :<....      "};
