/* XPM */
static char * joystickX_xpm[] = {
"17 16 38 1",
" 	c None",
".	c #000000",
"+	c #9C9C9C",
"@	c #FFFFFF",
"#	c #FF0000",
"$	c #FF8484",
"%	c #444444",
"&	c #323232",
"*	c #383838",
"=	c #464646",
"-	c #EAEAEA",
";	c #7C8F8F",
">	c #252525",
",	c #474747",
"'	c #CACACA",
")	c #E0E0E0",
"!	c #DADADA",
"~	c #7C0000",
"{	c #380000",
"]	c #8A8A8A",
"^	c #DEDEDE",
"/	c #A4A4A4",
"(	c #603B3B",
"_	c #4C5858",
":	c #969696",
"<	c #4E4E4E",
"[	c #E9E9E9",
"}	c #5A5A5A",
"|	c #818181",
"1	c #BDBDBD",
"2	c #131313",
"3	c #8D8D8D",
"4	c #535353",
"5	c #696969",
"6	c #AAAAAA",
"7	c #E8E8E8",
"8	c #6A6A6A",
"9	c #070707",
"        ..       ",
"       +@@.      ",
"   ##$ +@%.$##   ",
"   ###$+@%$###   ",
"   ####$@$####   ",
"   $####$####$   ",
"    $#######$&   ",
"  *=-$#####$@@;> ",
" ,')!$#####$~{@@.",
"]@^/$#######$(@].",
",@@$####$####$_:.",
"<[}####$@$####|1.",
"2@@###$@@@$###3..",
"..4##$@::.5$##.  ",
"  6..67@@8]..    ",
"     69....      "};
