/* XPM */
static char * joystick_xpm[] = {
"17 16 49 1",
" 	c None",
".	c #000000",
"+	c #9C9C9C",
"@	c #FFFFFF",
"#	c #444444",
"$	c #4C4C4C",
"%	c #323232",
"&	c #464646",
"*	c #F9F9F9",
"=	c #252525",
"-	c #474747",
";	c #E0E0E0",
">	c #DADADA",
",	c #E1E1E1",
"'	c #7C0000",
")	c #380000",
"!	c #8A8A8A",
"~	c #DEDEDE",
"{	c #A4A4A4",
"]	c #ADADAD",
"^	c #D0D0D0",
"/	c #F7FFFF",
"(	c #800000",
"_	c #603B3B",
":	c #C4C4C4",
"<	c #81ABAB",
"[	c #4C5858",
"}	c #969696",
"|	c #4E4E4E",
"1	c #E9E9E9",
"2	c #5A5A5A",
"3	c #F4F4F4",
"4	c #BFBFBF",
"5	c #353535",
"6	c #5D5D5D",
"7	c #818181",
"8	c #BDBDBD",
"9	c #131313",
"0	c #181818",
"a	c #5E5E5E",
"b	c #838383",
"c	c #8D8D8D",
"d	c #535353",
"e	c #E8E8E8",
"f	c #696969",
"g	c #8B8B8B",
"h	c #AAAAAA",
"i	c #6A6A6A",
"j	c #070707",
"        ..       ",
"       +@@.      ",
"       +@#.      ",
"       +@#.      ",
"       +@#.      ",
"       +@#.      ",
"     $%+@#.%%    ",
"   &%**+@##@@%%= ",
" -%;>,@.@..@')@@.",
"!@~{]^@@.@,/(_@!.",
"-@@@@:,,,,@@@<[}.",
"|12}3@@@]@4@5678.",
"9@@@}2}@@@0ab}c..",
"..dee@@}}.f}g..  ",
"  h..he@@i!..    ",
"     hj....      "};
