/* XPM */
static char * midiX_xpm[] = {
"17 16 7 1",
" 	c None",
".	c #000000",
"+	c #808080",
"@	c #FF0000",
"#	c #FF8484",
"$	c #FFFFFF",
"%	c #C0C0C0",
"                 ",
"   ... ... ...   ",
"+++@@#.....#@@.++",
"+$$@@@#...#@@@%$+",
"+$$@@@@#.#@@@@%$+",
"+$$#@@@@#@@@@#%$+",
"+$$.#@@@@@@@#.%$+",
"+$$..#@@@@@#..%$+",
"+$$..#@@@@@#..%$+",
"+$$$#@@@@@@@#%%$+",
"+$$#@@@@#@@@@#$$+",
"+$$@@@@#.#@@@@$$+",
"+$$@@@#$.%#@@@$$+",
"+$$@@#$$.%$#@@$$+",
".+++.+++.+++.+++.",
"................."};
