/* XPM */
static char * midi_xpm[] = {
"17 16 5 1",
" 	c None",
".	c #000000",
"+	c #808080",
"@	c #FFFFFF",
"#	c #C0C0C0",
"                 ",
"   ... ... ...   ",
"+++............++",
"+@@...#...#...#@+",
"+@@...#...#...#@+",
"+@@...#...#...#@+",
"+@@...#...#...#@+",
"+@@...#...#...#@+",
"+@@...#...#...#@+",
"+@@@.##@.##@.##@+",
"+@@@.#@@.#@@.#@@+",
"+@@@.#@@.#@@.#@@+",
"+@@@.#@@.#@@.#@@+",
"+@@@.#@@.#@@.#@@+",
".+++.+++.+++.+++.",
"................."};
