# Exported from Wings 3D 0.98.29b
mtllib cone.mtl
o cone1
#17 vertices, 30 faces
v 1.00000000 -1.00000000 0.0000000e+0
v 0.92387953 -1.00000000 0.38268343
v 0.70710678 -1.00000000 0.70710678
v 0.38268343 -1.00000000 0.92387953
v 6.1230318e-17 -1.00000000 1.00000000
v -0.38268343 -1.00000000 0.92387953
v -0.70710678 -1.00000000 0.70710678
v -0.92387953 -1.00000000 0.38268343
v -1.00000000 -1.00000000 1.2246064e-16
v -0.92387953 -1.00000000 -0.38268343
v -0.70710678 -1.00000000 -0.70710678
v -0.38268343 -1.00000000 -0.92387953
v -1.8369095e-16 -1.00000000 -1.00000000
v 0.38268343 -1.00000000 -0.92387953
v 0.70710678 -1.00000000 -0.70710678
v 0.92387953 -1.00000000 -0.38268343
v 0.0000000e+0 1.00000000 0.0000000e+0
vn 0.99770979 -6.7640061e-2 -1.2578715e-16
vn 0.59046943 -0.76910745 0.24458044
vn 0.45192573 -0.76910745 0.45192573
vn 0.24458044 -0.76910745 0.59046943
vn 0.0000000e+0 -0.76910745 0.63911950
vn -0.24458044 -0.76910745 0.59046943
vn -0.45192573 -0.76910745 0.45192573
vn -0.77971445 -0.53641108 0.32296830
vn -0.99770979 -6.7640061e-2 1.4151054e-16
vn -0.59046943 -0.76910745 -0.24458044
vn -0.45192573 -0.76910745 -0.45192573
vn -0.24458044 -0.76910745 -0.59046943
vn -8.0577559e-17 -0.76910745 -0.63911950
vn 0.24458044 -0.76910745 -0.59046943
vn 0.45192573 -0.76910745 -0.45192573
vn 0.77971445 -0.53641108 -0.32296830
vn -3.1518972e-17 1.00000000 9.0617045e-17
g cone1_default
usemtl default
f 1//1 17//17 2//2
f 2//2 16//16 1//1
f 2//2 17//17 3//3
f 3//3 15//15 2//2
f 3//3 17//17 4//4
f 4//4 14//14 3//3
f 4//4 17//17 5//5
f 5//5 13//13 4//4
f 5//5 17//17 6//6
f 6//6 12//12 5//5
f 6//6 17//17 7//7
f 7//7 11//11 6//6
f 7//7 17//17 8//8
f 8//8 10//10 7//7
f 8//8 17//17 9//9
f 9//9 10//10 8//8
f 9//9 17//17 10//10
f 10//10 17//17 11//11
f 11//11 7//7 10//10
f 11//11 17//17 12//12
f 12//12 6//6 11//11
f 12//12 17//17 13//13
f 13//13 5//5 12//12
f 13//13 17//17 14//14
f 14//14 4//4 13//13
f 14//14 17//17 15//15
f 15//15 3//3 14//14
f 15//15 17//17 16//16
f 16//16 2//2 15//15
f 16//16 17//17 1//1
